<svg id="Layer_6_copy" data-name="Layer 6 copy" xmlns="http://www.w3.org/2000/svg" viewBox="0 0 32 32"><defs><style>.cls-1{fill:#fff;stroke:#0a0a0a;stroke-miterlimit:10;stroke-width:0.24px;}</style></defs><path class="cls-1" d="M17.13,21.92c-.21-.8-1.35-3-3-2.83l-.32,1a4.33,4.33,0,0,1-4.67,2.78,4.47,4.47,0,0,1-3.95-4.26,4.42,4.42,0,0,1,5.79-4.35L5.37,19.83a4.3,4.3,0,0,0,2.82,2.84l5.18-5.3h0l2.7-2.71a1,1,0,0,0,.09-1.36,8.35,8.35,0,1,0,1,8.73S17.15,22,17.13,21.92Z"/><path class="cls-1" d="M22.39,10.18a8.37,8.37,0,0,0-4.48,1.31V5.79a.67.67,0,0,0-.66-.68H14.69a.68.68,0,0,0-.67.68l0,12.44h0c0,.1,0,.2,0,.3a8.35,8.35,0,1,0,8.35-8.36ZM22.34,23a4.43,4.43,0,1,1,4.42-4.43A4.43,4.43,0,0,1,22.34,23Z"/><line class="cls-1" x1="17.91" y1="18.55" x2="17.89" y2="11.26"/></svg>